<svg width="30" height="30" viewBox="0 0 30 30" fill="none" xmlns="http://www.w3.org/2000/svg">
<path d="M0 10C0 4.47715 4.47715 0 10 0H20C25.5228 0 30 4.47715 30 10V20C30 25.5228 25.5228 30 20 30H10C4.47715 30 0 25.5228 0 20V10Z" fill="#EDE8FD"/>
<path d="M12.6204 22.3184V19.7627C12.6204 19.115 13.147 18.5889 13.7993 18.5848H16.1945C16.8497 18.5848 17.3809 19.1122 17.3809 19.7627V22.311C17.3809 22.8727 17.8373 23.3292 18.4031 23.3333H20.0372C20.8003 23.3352 21.5329 23.0356 22.0733 22.5005C22.6136 21.9655 22.9173 21.2389 22.9173 20.4812V13.2215C22.9173 12.6094 22.644 12.0289 22.1712 11.6362L16.6198 7.22852C15.6494 6.45756 14.2635 6.48247 13.3218 7.28778L7.88983 11.6362C7.3946 12.0173 7.09861 12.5996 7.08398 13.2215V20.4738C7.08398 22.053 8.37347 23.3333 9.96413 23.3333H11.5609C11.8333 23.3352 12.0952 23.2292 12.2885 23.0386C12.4819 22.8481 12.5906 22.5888 12.5906 22.3184H12.6204Z" fill="#9491A8"/>
</svg>
