<svg width="11" height="11" viewBox="0 0 11 11" fill="none" xmlns="http://www.w3.org/2000/svg">
<g clip-path="url(#clip0_992_21126)">
<path d="M9.70505 3.12218C9.94737 2.87991 10.0835 2.55131 10.0836 2.20865C10.0836 1.866 9.94754 1.53736 9.70527 1.29503C9.46301 1.05271 9.13441 0.916547 8.79175 0.916504C8.44909 0.916461 8.12045 1.05254 7.87813 1.2948L1.76121 7.4131C1.6548 7.5192 1.5761 7.64984 1.53205 7.79351L0.926587 9.78818C0.914742 9.82782 0.913847 9.86992 0.923998 9.91003C0.934149 9.95013 0.954967 9.98674 0.984244 10.016C1.01352 10.0452 1.05016 10.066 1.09028 10.076C1.13041 10.0861 1.17251 10.0852 1.21213 10.0733L3.20725 9.46826C3.35079 9.42461 3.48142 9.34639 3.58767 9.24047L9.70505 3.12218Z" stroke="#7B3FF2" stroke-width="0.916667" stroke-linecap="round" stroke-linejoin="round"/>
<path d="M6.875 2.29175L8.70833 4.12508" stroke="#7B3FF2" stroke-width="0.916667" stroke-linecap="round" stroke-linejoin="round"/>
</g>
<defs>
<clipPath id="clip0_992_21126">
<rect width="11" height="11" fill="white"/>
</clipPath>
</defs>
</svg>
