<svg width="23" height="21" viewBox="0 0 23 21" fill="none" xmlns="http://www.w3.org/2000/svg">
<path d="M2.29412 2.29412H5.73529L8.02941 0H14.9118L17.2059 2.29412H20.6471C21.2555 2.29412 21.839 2.53582 22.2692 2.96605C22.6995 3.39628 22.9412 3.9798 22.9412 4.58824V18.3529C22.9412 18.9614 22.6995 19.5449 22.2692 19.9751C21.839 20.4054 21.2555 20.6471 20.6471 20.6471H2.29412C1.68568 20.6471 1.10216 20.4054 0.671931 19.9751C0.241701 19.5449 0 18.9614 0 18.3529V4.58824C0 3.9798 0.241701 3.39628 0.671931 2.96605C1.10216 2.53582 1.68568 2.29412 2.29412 2.29412ZM11.4706 5.73529C9.94949 5.73529 8.4907 6.33955 7.41512 7.41512C6.33955 8.4907 5.73529 9.9495 5.73529 11.4706C5.73529 12.9917 6.33955 14.4505 7.41512 15.5261C8.4907 16.6016 9.94949 17.2059 11.4706 17.2059C12.9917 17.2059 14.4505 16.6016 15.5261 15.5261C16.6016 14.4505 17.2059 12.9917 17.2059 11.4706C17.2059 9.9495 16.6016 8.4907 15.5261 7.41512C14.4505 6.33955 12.9917 5.73529 11.4706 5.73529ZM11.4706 8.02941C12.3832 8.02941 13.2585 8.39196 13.9039 9.03731C14.5492 9.68266 14.9118 10.5579 14.9118 11.4706C14.9118 12.3832 14.5492 13.2585 13.9039 13.9039C13.2585 14.5492 12.3832 14.9118 11.4706 14.9118C10.5579 14.9118 9.68265 14.5492 9.03731 13.9039C8.39196 13.2585 8.02941 12.3832 8.02941 11.4706C8.02941 10.5579 8.39196 9.68266 9.03731 9.03731C9.68265 8.39196 10.5579 8.02941 11.4706 8.02941Z" fill="#8565FF"/>
</svg>
