<svg width="150" height="150" viewBox="0 0 150 150" fill="none" xmlns="http://www.w3.org/2000/svg">
<circle cx="75" cy="75" r="73" fill="#EDE8FD" stroke="url(#paint0_linear_992_19069)" stroke-width="4"/>
<path d="M75 92C96.4905 92.0004 114.584 107.95 119.998 129.651C107.832 139.854 92.135 146 74.999 146C57.863 146 42.1661 139.854 30 129.651C35.4145 107.949 53.5091 92 75 92Z" fill="url(#paint1_linear_992_19069)"/>
<circle cx="130.5" cy="130.5" r="19.5" fill="white"/>
<path d="M121.324 122.47H124.765L127.059 120.176H133.941L136.235 122.47H139.676C140.285 122.47 140.868 122.712 141.299 123.142C141.729 123.573 141.971 124.156 141.971 124.765V138.529C141.971 139.138 141.729 139.721 141.299 140.151C140.868 140.582 140.285 140.823 139.676 140.823H121.324C120.715 140.823 120.132 140.582 119.701 140.151C119.271 139.721 119.029 139.138 119.029 138.529V124.765C119.029 124.156 119.271 123.573 119.701 123.142C120.132 122.712 120.715 122.47 121.324 122.47ZM130.5 125.912C128.979 125.912 127.52 126.516 126.445 127.591C125.369 128.667 124.765 130.126 124.765 131.647C124.765 133.168 125.369 134.627 126.445 135.702C127.52 136.778 128.979 137.382 130.5 137.382C132.021 137.382 133.48 136.778 134.555 135.702C135.631 134.627 136.235 133.168 136.235 131.647C136.235 130.126 135.631 128.667 134.555 127.591C133.48 126.516 132.021 125.912 130.5 125.912ZM130.5 128.206C131.413 128.206 132.288 128.568 132.933 129.214C133.579 129.859 133.941 130.734 133.941 131.647C133.941 132.56 133.579 133.435 132.933 134.08C132.288 134.725 131.413 135.088 130.5 135.088C129.587 135.088 128.712 134.725 128.067 134.08C127.421 133.435 127.059 132.56 127.059 131.647C127.059 130.734 127.421 129.859 128.067 129.214C128.712 128.568 129.587 128.206 130.5 128.206Z" fill="#8565FF"/>
<circle cx="75" cy="63" r="26" fill="url(#paint2_linear_992_19069)"/>
<defs>
<linearGradient id="paint0_linear_992_19069" x1="75" y1="0" x2="75" y2="150" gradientUnits="userSpaceOnUse">
<stop stop-color="#C4B5FD"/>
<stop offset="1" stop-color="#6D28D9"/>
</linearGradient>
<linearGradient id="paint1_linear_992_19069" x1="74.999" y1="92" x2="74.999" y2="146" gradientUnits="userSpaceOnUse">
<stop stop-color="#C4B5FD"/>
<stop offset="1" stop-color="#6D28D9"/>
</linearGradient>
<linearGradient id="paint2_linear_992_19069" x1="75" y1="37" x2="75" y2="89" gradientUnits="userSpaceOnUse">
<stop stop-color="#C4B5FD"/>
<stop offset="1" stop-color="#6D28D9"/>
</linearGradient>
</defs>
</svg>
